<svg width="483" height="413" viewBox="0 0 483 413" fill="none" xmlns="http://www.w3.org/2000/svg">
<g id="Group">
<g id="placa">
<path id="Vector" d="M457.383 396.262V364.262H449.385H449.383H401.383H81.383H33.383H25.383V396.262H457.383Z" fill="#D2B496"/>
<path id="Vector_2" d="M465.385 396.262H457.383H25.383H17.385C12.967 396.262 9.38501 399.844 9.38501 404.262C9.38501 408.68 12.967 412.262 17.385 412.262H465.385C469.803 412.262 473.385 408.68 473.385 404.262C473.385 399.844 469.803 396.262 465.385 396.262Z" fill="#BEA087"/>
</g>
<g id="pereti">
<path id="Vector_3" d="M401.383 182.918V364.262H449.383V217.676L401.383 182.918Z" fill="#F5D7B4"/>
<path id="Vector_4" d="M81.383 364.262V182.92L33.385 217.676V190.637L33.383 190.638V364.262H81.383Z" fill="#F5D7B4"/>
</g>
<g id="acoperis">
<path id="Vector_5" d="M241.387 40.02L449.385 190.639L464 201.223L482.766 175.301L241.387 0.503998L145.383 70.024L81.383 116.369L0 175.301L18.766 201.223L33.383 190.638L33.385 190.637L241.387 40.02Z" fill="#A03C3C"/>
<path id="Vector_6" d="M153.383 12.262H73.383V44.262H153.383V12.262Z" fill="#A03C3C"/>
<path id="Vector_7" d="M145.383 44.262H81.383V116.369L145.383 70.024V44.262Z" fill="#F5D7B4"/>
<path id="Vector_8" d="M241.387 40.02L33.385 190.637V217.676L81.383 182.92L241.387 67.059L401.383 182.918L449.383 217.676L449.385 217.678V190.639L241.387 40.02Z" fill="#D2B496"/>
</g>
</g>
</svg>
